<svg width="40" height="41" viewBox="0 0 40 41" fill="none" xmlns="http://www.w3.org/2000/svg">
<path d="M32.3997 21.8429C32.033 21.8429 31.6497 21.7262 31.283 21.6429C30.5405 21.4793 29.8108 21.262 29.0997 20.9929C28.3265 20.7116 27.4766 20.7262 26.7135 21.0339C25.9505 21.3416 25.3282 21.9206 24.9663 22.6595L24.5997 23.4095C22.9764 22.5065 21.4847 21.3849 20.1663 20.0762C18.8576 18.7579 17.7361 17.2662 16.833 15.6429L17.533 15.1762C18.272 14.8144 18.851 14.1921 19.1587 13.429C19.4664 12.666 19.481 11.8161 19.1997 11.0429C18.9351 10.3302 18.7179 9.60088 18.5497 8.85955C18.4663 8.49288 18.3997 8.10955 18.3497 7.72621C18.1473 6.55225 17.5324 5.48912 16.6157 4.72828C15.699 3.96744 14.5408 3.55889 13.3497 3.57621H8.34968C7.6314 3.56947 6.9201 3.71757 6.2642 4.01043C5.6083 4.30329 5.0232 4.73404 4.54873 5.27335C4.07426 5.81266 3.72157 6.44787 3.51466 7.13574C3.30775 7.8236 3.25148 8.54798 3.34968 9.25955C4.23758 16.2418 7.42639 22.7293 12.4124 27.6973C17.3985 32.6652 23.8975 35.8304 30.883 36.6929H31.5163C32.7454 36.6947 33.932 36.2438 34.8497 35.4262C35.377 34.9546 35.7982 34.3765 36.0855 33.7301C36.3728 33.0836 36.5196 32.3836 36.5163 31.6762V26.6762C36.4959 25.5185 36.0744 24.4038 35.3236 23.5223C34.5728 22.6408 33.5394 22.0473 32.3997 21.8429ZM33.233 31.8429C33.2327 32.0795 33.182 32.3134 33.0843 32.5289C32.9866 32.7444 32.8441 32.9367 32.6663 33.0929C32.4807 33.2546 32.263 33.3752 32.0275 33.447C31.792 33.5188 31.544 33.5401 31.2997 33.5095C25.0578 32.7092 19.2601 29.8537 14.8209 25.3934C10.3817 20.933 7.5537 15.1218 6.78301 8.87621C6.75649 8.63208 6.77973 8.3851 6.85135 8.1502C6.92297 7.9153 7.04146 7.69736 7.19968 7.50955C7.35586 7.33177 7.54811 7.18928 7.76364 7.09157C7.97917 6.99387 8.21304 6.94318 8.44968 6.94288H13.4497C13.8373 6.93426 14.2157 7.06101 14.5199 7.30133C14.8241 7.54165 15.035 7.8805 15.1163 8.25955C15.183 8.7151 15.2663 9.1651 15.3663 9.60955C15.5589 10.4881 15.8151 11.3515 16.133 12.1929L13.7997 13.2762C13.6002 13.3677 13.4207 13.4978 13.2716 13.6589C13.1225 13.82 13.0067 14.0089 12.9308 14.2149C12.8549 14.4208 12.8205 14.6398 12.8294 14.8591C12.8384 15.0784 12.8906 15.2938 12.983 15.4929C15.3817 20.6308 19.5118 24.7609 24.6497 27.1595C25.0554 27.3262 25.5106 27.3262 25.9163 27.1595C26.1242 27.0852 26.3152 26.9703 26.4783 26.8215C26.6414 26.6727 26.7733 26.4931 26.8663 26.2929L27.8997 23.9595C28.7613 24.2677 29.6407 24.5237 30.533 24.7262C30.9775 24.8262 31.4275 24.9095 31.883 24.9762C32.2621 25.0575 32.6009 25.2684 32.8412 25.5726C33.0815 25.8768 33.2083 26.2553 33.1997 26.6429L33.233 31.8429Z" fill="#3B9BE9"/>
</svg>
