<svg width="29" height="29" viewBox="0 0 29 29" fill="none" xmlns="http://www.w3.org/2000/svg">
<g clip-path="url(#clip0_125_1157)">
<path d="M20.7505 7.07108L14.858 12.9636L8.9654 7.07108C8.80912 6.9148 8.59716 6.82701 8.37614 6.82701C8.15513 6.82701 7.94317 6.9148 7.78689 7.07108V7.07108C7.63061 7.22736 7.54281 7.43933 7.54281 7.66034C7.54281 7.88135 7.63061 8.09331 7.78689 8.24959L13.6794 14.1422L7.78689 20.0347C7.63061 20.191 7.54281 20.4029 7.54281 20.624C7.54281 20.845 7.63061 21.0569 7.78689 21.2132V21.2132C7.94317 21.3695 8.15513 21.4573 8.37614 21.4573C8.59716 21.4573 8.80912 21.3695 8.9654 21.2132L14.858 15.3207L20.7505 21.2132C20.9068 21.3695 21.1188 21.4573 21.3398 21.4573C21.5608 21.4573 21.7727 21.3695 21.929 21.2132C22.0853 21.0569 22.1731 20.845 22.1731 20.624C22.1731 20.4029 22.0853 20.191 21.929 20.0347L16.0365 14.1422L21.929 8.24959C22.0853 8.09331 22.1731 7.88135 22.1731 7.66034C22.1731 7.43932 22.0853 7.22736 21.929 7.07108C21.7727 6.9148 21.5608 6.82701 21.3398 6.82701C21.1188 6.82701 20.9068 6.9148 20.7505 7.07108Z" fill="#989898"/>
</g>
<defs>
<clipPath id="clip0_125_1157">
<rect width="20" height="20" fill="white" transform="translate(0.71582 14.1422) rotate(-45)"/>
</clipPath>
</defs>
</svg>
