<svg width="40" height="41" viewBox="0 0 40 41" fill="none" xmlns="http://www.w3.org/2000/svg">
<path d="M34.8167 20.6267C34.8167 12.4477 28.1787 5.80969 19.9997 5.80969C11.8207 5.80969 5.18262 12.4477 5.18262 20.6267C5.18262 28.8057 11.8207 35.4438 19.9997 35.4438" stroke="#3B9BE9" stroke-width="2.37073" stroke-linecap="round" stroke-linejoin="round"/>
<path d="M14.074 7.29199H15.5557C12.6663 15.9451 12.6663 25.3095 15.5557 33.9627H14.074" stroke="#3B9BE9" stroke-width="2.37073" stroke-linecap="round" stroke-linejoin="round"/>
<path d="M24.4458 7.29199C25.8831 11.6186 26.6091 16.123 26.6091 20.6273" stroke="#3B9BE9" stroke-width="2.37073" stroke-linecap="round" stroke-linejoin="round"/>
<path d="M6.66455 26.5541V25.0724C10.9911 26.5096 15.4955 27.2357 19.9999 27.2357" stroke="#3B9BE9" stroke-width="2.37073" stroke-linecap="round" stroke-linejoin="round"/>
<path d="M33.3358 16.1832C29.0093 14.746 24.5049 14.0199 20.0005 14.0199" stroke="#3B9BE9" stroke-width="2.37073" stroke-linecap="round" stroke-linejoin="round"/>
<path d="M6.66455 16.1826C9.02046 15.3973 11.4208 14.8343 13.8508 14.4639" stroke="#3B9BE9" stroke-width="2.37073" stroke-linecap="round" stroke-linejoin="round"/>
<path d="M29.1873 34.5553C31.8059 34.5553 33.9287 32.4325 33.9287 29.8139C33.9287 27.1952 31.8059 25.0724 29.1873 25.0724C26.5686 25.0724 24.4458 27.1952 24.4458 29.8139C24.4458 32.4325 26.5686 34.5553 29.1873 34.5553Z" stroke="#3B9BE9" stroke-width="2.37073" stroke-linecap="round" stroke-linejoin="round"/>
<path d="M34.8176 35.4442L33.3359 33.9625" stroke="#3B9BE9" stroke-width="2.37073" stroke-linecap="round" stroke-linejoin="round"/>
</svg>
